# xmcd
#
# Track frame offsets:
# 150
# 13860
# 31925
# 56640
# 72310
# 83235
# 99100
# 112520
# 126572
# 140882
# 154705
# 169760
# 198177
# 209935
# 224700
# 237262
# 248332
# 262430
# 277830
# 290955
#
# Disc length: 4090 seconds
#
#
# Revision: 0
# Processed by: cddbd v1.5.1PL0 Copyright (c) Steve Scherf et al.
# Submitted via: FreeRIP 2.80 
#
DISCID=360ff814
DTITLE=Various Artist - New Zealand Our Land Our Music Vol II CD 1
DYEAR=2000
DGENRE=Other
TTITLE0=Aotearoa
TTITLE1=Sailing Away
TTITLE2=New Zealand, Kainga Tuturu
TTITLE3=Blue Smoke
TTITLE4=Opo The Cracy Dolphin
TTITLE5=Rememberance
TTITLE6=Damn the Dam
TTITLE7=Haere Mai
TTITLE8=Tea At Te Kuiti
TTITLE9=Rugby Racing and Beer
TTITLE10=My Old Man's an All Black
TTITLE11=The Rugby Deck of Cards
TTITLE12=Give 'Em A Taste Of Kiwi
TTITLE13=Ngoi Ngoi
TTITLE14=Good For Live
TTITLE15=Mr Whippy
TTITLE16=She'll be Right
TTITLE17=Till We Kissed
TTITLE18=I Have Loved Me A Man
TTITLE19=Pretty Girl
EXTD=Various Artists
EXTT0=
EXTT1=
EXTT2=
EXTT3=
EXTT4=
EXTT5=
EXTT6=
EXTT7=
EXTT8=
EXTT9=
EXTT10=
EXTT11=
EXTT12=
EXTT13=
EXTT14=
EXTT15=
EXTT16=
EXTT17=
EXTT18=
EXTT19=
PLAYORDER=
